<?xml version="1.0" standalone="no"?>
<!DOCTYPE svg PUBLIC "-//W3C//DTD SVG 20010904//EN"
 "http://www.w3.org/TR/2001/REC-SVG-20010904/DTD/svg10.dtd">
<svg version="1.0" xmlns="http://www.w3.org/2000/svg"
 width="1024.000000pt" height="1024.000000pt" viewBox="0 0 1024.000000 1024.000000"
 preserveAspectRatio="xMidYMid meet">

<g transform="translate(0.000000,1024.000000) scale(0.100000,-0.100000)"
fill="#000000" stroke="none">
<path d="M5456 8693 c-11 -11 -6 -23 9 -23 8 0 15 4 15 9 0 13 -16 22 -24 14z"/>
<path d="M5925 7373 c4 -10 10 -26 12 -35 4 -12 15 -18 35 -18 32 0 31 7 -5
48 -25 27 -53 30 -42 5z"/>
<path d="M3960 7338 c-166 -47 -204 -61 -238 -92 -20 -18 -52 -43 -70 -55 -36
-25 -126 -134 -160 -194 -42 -74 -103 -271 -74 -242 5 6 26 42 47 80 45 85 73
123 143 197 43 45 55 65 57 94 2 38 23 63 68 82 33 14 46 -3 27 -37 -9 -17 6
-12 77 25 82 43 115 64 101 64 -3 0 -18 -7 -34 -15 -20 -10 -32 -11 -41 -4
-14 12 -36 3 -28 -12 4 -5 -1 -9 -9 -9 -9 0 -16 3 -16 8 1 15 49 52 69 52 12
0 33 7 46 16 26 17 46 16 224 -2 52 -5 63 -4 59 7 -3 8 -26 18 -51 23 -26 4
-47 12 -47 17 0 12 -105 10 -150 -3z"/>
<path d="M6118 7299 c-5 -16 33 -32 139 -58 40 -10 79 -23 86 -30 8 -6 32 -17
55 -25 73 -26 261 -176 320 -256 53 -71 112 -195 112 -236 0 -53 12 -82 36
-87 20 -3 24 0 24 18 0 43 -52 180 -91 242 -21 34 -39 66 -39 71 0 12 -169
184 -193 197 -24 12 -44 41 -35 51 17 16 61 -12 137 -86 44 -44 81 -86 81 -93
0 -8 8 -23 18 -35 9 -11 22 -29 29 -39 11 -17 12 -17 12 1 1 35 -67 140 -130
201 -35 33 -55 50 -45 38 26 -31 13 -29 -37 6 -116 79 -232 119 -368 127 -86
6 -107 4 -111 -7z"/>
<path d="M4235 7270 c-4 -6 7 -10 27 -10 25 0 29 3 18 10 -19 13 -37 13 -45 0z"/>
<path d="M6515 7265 c30 -25 59 -39 51 -26 -4 6 -22 18 -39 27 -30 14 -31 14
-12 -1z"/>
<path d="M5986 7261 c-5 -7 7 -11 38 -11 24 0 53 -3 63 -6 14 -6 15 -4 6 6
-15 17 -98 26 -107 11z"/>
<path d="M4720 7252 c0 -10 98 -84 116 -86 7 -1 22 -10 34 -21 36 -33 21 -1
-24 48 -24 26 -50 47 -59 47 -9 0 -19 5 -22 10 -7 12 -45 14 -45 2z"/>
<path d="M5472 7234 c-17 -14 -37 -34 -43 -45 -7 -14 4 -9 40 17 28 20 51 40
51 45 0 15 -13 10 -48 -17z"/>
<path d="M6125 7203 c9 -16 27 -44 41 -63 22 -30 25 -43 22 -88 -5 -61 4 -75
22 -33 8 21 9 39 1 66 -13 50 -72 145 -88 145 -11 0 -10 -6 2 -27z"/>
<path d="M4880 7107 c0 -4 11 -25 25 -45 14 -20 25 -42 25 -48 0 -6 7 -17 16
-25 13 -11 14 -9 8 17 -12 51 -23 74 -35 74 -7 0 -18 8 -25 18 -7 9 -14 13
-14 9z"/>
<path d="M5346 7085 c-3 -8 -2 -15 3 -15 5 0 14 7 21 15 10 12 10 15 -3 15 -8
0 -17 -7 -21 -15z"/>
<path d="M4307 6903 c-28 -7 -9 -23 28 -23 37 0 54 14 29 24 -17 6 -29 6 -57
-1z"/>
<path d="M3969 6885 c-65 -11 -119 -28 -119 -38 0 -2 62 -3 138 -2 136 2 192
9 192 26 0 5 -6 6 -14 3 -8 -3 -28 2 -45 10 -35 18 -49 19 -152 1z"/>
<path d="M5885 6890 c-8 -13 85 -13 105 0 11 7 -1 10 -42 10 -31 0 -60 -4 -63
-10z"/>
<path d="M6154 6886 c-11 -8 -40 -15 -64 -14 -37 0 -47 -5 -75 -35 -30 -33
-32 -37 -14 -42 24 -8 39 1 39 25 0 10 8 21 18 24 51 14 81 16 87 6 9 -15 145
-1 163 16 11 12 9 16 -13 24 -39 15 -117 12 -141 -4z"/>
<path d="M4418 6883 c7 -3 16 -2 19 1 4 3 -2 6 -13 5 -11 0 -14 -3 -6 -6z"/>
<path d="M6337 6866 c-4 -9 4 -16 23 -19 15 -4 39 -9 54 -13 45 -11 29 13 -21
30 -56 19 -50 19 -56 2z"/>
<path d="M4710 6831 c0 -5 9 -13 20 -16 11 -3 32 -22 46 -41 21 -28 33 -34 63
-34 26 0 32 -3 22 -9 -12 -8 -8 -13 18 -28 18 -10 60 -38 93 -63 98 -73 107
-78 118 -60 11 17 -14 50 -39 50 -9 0 -31 16 -50 35 -19 19 -42 35 -53 35 -10
0 -21 6 -24 14 -6 14 -87 67 -161 105 -47 24 -53 25 -53 12z"/>
<path d="M5545 6830 c-3 -5 -1 -10 4 -10 6 0 11 5 11 10 0 6 -2 10 -4 10 -3 0
-8 -4 -11 -10z"/>
<path d="M5491 6789 c-13 -10 -29 -19 -37 -19 -7 0 -25 -12 -38 -27 -14 -15
-40 -34 -58 -43 -17 -8 -33 -21 -36 -28 -4 -12 85 32 176 88 34 21 40 29 30
37 -10 8 -19 6 -37 -8z"/>
<path d="M5914 6765 c-8 -19 -19 -36 -24 -36 -6 -1 -14 -2 -19 -3 -11 -1 -81
-85 -81 -97 0 -20 23 -6 81 49 33 31 67 61 75 65 19 11 18 43 -2 51 -11 4 -19
-4 -30 -29z"/>
<path d="M6535 6770 c7 -12 45 -14 45 -2 0 4 -11 9 -26 10 -14 1 -23 -2 -19
-8z"/>
<path d="M6657 6713 c-3 -5 10 -25 28 -45 34 -39 53 -108 40 -149 -14 -43 40
-63 98 -36 15 6 27 18 27 25 0 6 5 12 10 12 6 0 10 9 10 20 0 12 -7 20 -17 20
-18 0 -103 86 -103 104 -1 23 -83 66 -93 49z"/>
<path d="M4415 6690 c3 -5 8 -10 11 -10 2 0 4 5 4 10 0 6 -5 10 -11 10 -5 0
-7 -4 -4 -10z"/>
<path d="M3525 6658 c-16 -17 -42 -49 -58 -71 -23 -32 -33 -38 -53 -33 -20 5
-28 0 -44 -26 -11 -18 -20 -36 -20 -40 0 -15 38 -8 44 8 5 14 9 14 22 3 9 -7
31 -12 48 -11 24 2 28 0 16 -7 -12 -9 -10 -11 11 -11 40 0 62 31 55 79 -3 27
-2 41 6 41 6 0 8 11 5 30 -4 16 -2 32 3 35 12 7 13 35 3 35 -5 -1 -21 -15 -38
-32z"/>
<path d="M3419 6648 c-7 -13 -19 -28 -28 -35 -14 -11 -14 -12 1 -13 24 0 73
44 64 58 -11 18 -24 14 -37 -10z"/>
<path d="M5269 6630 c-9 -5 -24 -22 -34 -37 l-18 -28 34 30 c19 16 38 33 44
37 13 11 -6 9 -26 -2z"/>
<path d="M5049 6463 c-104 -108 -155 -171 -224 -282 -28 -45 -27 -44 -37 -30
-6 10 -7 7 -3 -8 8 -29 -32 -124 -44 -105 -9 15 -7 19 -71 -151 -22 -59 -40
-114 -40 -122 0 -27 -19 -16 -50 31 -43 62 -51 47 -10 -18 39 -62 41 -84 20
-263 -20 -173 -19 -559 1 -655 15 -73 16 -74 20 -33 2 23 2 40 -1 38 -11 -7
-10 422 1 500 6 44 16 119 22 167 15 112 26 123 66 68 40 -55 40 -32 1 31 -36
59 -35 68 28 229 76 198 223 439 346 568 52 54 65 63 87 58 20 -4 27 -1 25 9
-2 15 -35 55 -45 55 -4 0 -45 -39 -92 -87z m-409 -733 c0 -5 -4 -10 -10 -10
-5 0 -10 5 -10 10 0 6 5 10 10 10 6 0 10 -4 10 -10z m-43 -782 c-3 -8 -6 -5
-6 6 -1 11 2 17 5 13 3 -3 4 -12 1 -19z"/>
<path d="M3235 6490 c-13 -14 -14 -20 -5 -20 9 0 8 -6 -5 -20 -20 -23 -50 -27
-42 -7 4 10 -2 13 -18 9 -14 -2 -26 -13 -29 -27 -3 -13 -18 -28 -33 -34 -44
-18 -74 -38 -73 -47 1 -5 -3 -10 -9 -12 -14 -5 -14 4 1 28 7 10 9 22 6 26 -11
10 -61 -30 -114 -92 -87 -102 -138 -210 -185 -394 -11 -44 -12 -260 -1 -260 5
0 14 64 21 143 15 161 35 239 88 346 33 66 99 148 110 137 3 -2 -11 -29 -30
-59 -20 -30 -42 -75 -50 -99 -29 -84 -74 -314 -75 -378 -1 -61 -4 -67 -36 -97
-20 -18 -42 -46 -51 -63 -9 -17 -29 -42 -45 -57 -39 -35 -104 -144 -129 -221
-22 -64 -29 -158 -11 -147 6 4 10 -22 10 -72 0 -43 2 -103 5 -133 5 -54 5 -54
-9 -25 -19 37 -19 21 -2 -76 21 -118 67 -209 150 -296 l40 -42 -12 -51 c-26
-111 -8 -282 45 -430 51 -142 159 -277 293 -367 89 -59 216 -122 229 -114 10
6 7 12 -10 25 -13 9 -29 16 -36 16 -32 0 -215 141 -294 226 -42 45 -125 175
-153 238 -38 86 -68 222 -60 274 3 23 9 40 12 37 6 -5 44 -111 83 -229 21 -63
126 -222 180 -271 18 -16 56 -53 84 -81 28 -29 73 -64 101 -78 155 -84 154
-83 195 -184 29 -71 49 -104 89 -145 117 -120 274 -204 442 -237 49 -10 60
-16 77 -46 11 -19 27 -37 36 -40 35 -14 11 -24 -42 -18 -167 18 -323 95 -462
229 -68 65 -92 83 -86 65 26 -85 182 -216 317 -266 65 -24 247 -72 302 -79 41
-6 58 -15 97 -53 26 -26 73 -67 105 -92 112 -86 154 -110 154 -87 0 7 -25 26
-55 42 -84 43 -107 76 -25 35 36 -18 73 -40 83 -49 10 -8 44 -21 75 -27 31 -7
84 -22 117 -35 l60 -23 -35 -6 c-33 -5 -32 -6 20 -13 79 -10 219 -9 279 3 29
5 90 28 136 51 l84 41 68 -27 c37 -15 73 -32 80 -37 7 -6 47 -14 90 -18 43 -5
114 -13 157 -20 64 -9 87 -8 125 3 228 71 279 95 391 185 86 70 126 118 110
136 -16 20 1 27 55 25 51 -3 60 3 60 39 0 16 8 30 20 37 11 5 35 20 52 33 17
12 39 22 50 22 10 0 27 7 37 15 19 14 19 15 -8 15 -27 0 -28 2 -23 37 l7 38
-26 -30 c-16 -19 -23 -23 -20 -11 4 12 -5 6 -26 -15 -18 -19 -30 -36 -25 -37
4 -2 16 7 27 20 11 12 19 17 20 11 0 -7 7 -13 15 -13 26 0 16 -17 -12 -23 -16
-3 -46 -10 -68 -16 -22 -6 -76 -10 -120 -10 l-80 2 0 -39 c0 -33 -4 -40 -23
-42 -18 -3 -21 -8 -16 -27 4 -18 0 -27 -23 -41 -15 -10 -41 -29 -56 -41 -50
-41 -229 -122 -292 -132 -285 -48 -412 -36 -467 46 -39 57 -55 116 -63 236 -4
59 -10 109 -14 112 -13 8 -31 -93 -32 -178 -1 -168 -47 -219 -220 -243 -112
-16 -253 -7 -314 20 -16 8 -50 21 -75 30 -68 24 -171 81 -207 115 -18 16 -41
32 -52 36 -23 7 -36 34 -18 40 6 2 37 6 68 9 284 29 614 223 717 421 8 17 24
41 34 55 10 14 30 59 44 99 14 41 32 80 40 88 11 12 16 8 28 -22 17 -39 27
-47 18 -13 -4 16 -2 19 8 13 10 -6 12 -1 7 21 -4 23 0 33 19 47 22 16 25 17
49 1 13 -9 37 -17 52 -19 16 -1 37 -6 48 -10 11 -5 0 8 -23 28 -44 38 -62 45
-62 27 0 -19 -20 -10 -89 39 -50 36 -71 46 -75 36 -2 -7 -29 -29 -58 -49 -29
-19 -78 -54 -108 -78 -75 -58 -255 -150 -365 -187 -107 -35 -234 -52 -447 -58
-160 -5 -321 9 -346 29 -7 6 -11 17 -8 24 3 7 1 25 -4 41 -18 56 -40 172 -40
206 0 42 -8 67 -22 67 -12 0 0 -122 13 -131 5 -3 11 -30 14 -60 3 -46 3 -49
-5 -19 -8 32 -9 30 -5 -15 2 -27 7 -60 10 -72 11 -34 -17 -39 -89 -14 -34 11
-71 21 -82 21 -11 0 -52 16 -91 35 -41 20 -86 35 -107 35 -20 0 -36 4 -36 10
0 5 -21 21 -47 34 -97 49 -286 227 -358 336 -87 132 -133 240 -150 350 -9 56
-14 104 -11 108 3 3 16 -4 29 -15 23 -22 98 -52 207 -83 78 -23 110 -24 110
-7 0 9 -24 18 -65 25 -76 15 -127 36 -215 89 -90 56 -91 73 -5 133 20 14 52
37 71 52 46 35 201 91 232 83 22 -5 23 -4 20 57 -3 57 -5 63 -25 66 -19 3 -23
-1 -23 -22 0 -14 5 -28 10 -31 6 -3 10 -17 10 -31 0 -18 -6 -24 -22 -26 -13 0
-34 -2 -48 -3 -36 -3 -187 -71 -234 -106 -22 -16 -44 -29 -49 -29 -6 0 -7 27
-4 68 7 69 34 160 81 267 23 52 24 57 6 35 -58 -70 -112 -221 -128 -359 -4
-30 -11 -56 -17 -57 -12 -4 -68 76 -91 131 -43 104 -56 170 -61 326 -6 181 1
223 58 358 47 110 94 182 113 175 8 -3 19 10 29 36 11 29 21 40 36 40 16 0 21
6 21 24 0 14 4 27 9 30 10 7 20 -25 22 -69 2 -29 2 -29 8 5 5 28 17 43 66 77
33 23 71 49 85 57 34 19 243 30 305 16 62 -14 97 3 39 19 -21 6 -64 14 -94 17
-75 8 -267 -27 -330 -59 -27 -14 -51 -23 -54 -19 -10 9 -7 46 8 93 8 24 23 73
34 109 11 36 24 74 28 85 l7 20 -17 -20 c-19 -22 -19 -21 12 47 21 46 47 76
36 41 -5 -15 -4 -15 4 -3 6 8 8 18 6 22 -3 5 4 25 15 44 l21 35 -22 -7 c-13
-4 -29 -9 -35 -11 -17 -7 -16 35 0 63 17 30 64 84 73 84 4 0 18 10 31 22 36
33 37 15 4 -38 -17 -26 -31 -55 -31 -64 0 -9 -6 -22 -12 -29 -7 -8 29 27 80
77 60 59 112 100 147 117 55 26 69 47 39 59 -10 4 -14 14 -11 26 7 27 -24 27
-48 0z m-355 -796 c0 -2 -9 -4 -21 -4 -11 0 -18 4 -14 10 5 8 35 3 35 -6z
m2203 -1980 c-1 -35 -27 -99 -69 -174 -7 -14 -14 -32 -14 -41 0 -9 -7 -22 -15
-29 -8 -6 -26 -32 -40 -56 -14 -24 -31 -44 -38 -44 -7 0 -18 -12 -25 -27 -12
-27 -146 -143 -174 -152 -7 -2 -35 -15 -63 -28 -118 -58 -268 -103 -342 -103
-33 0 -90 -24 -105 -45 -4 -5 -18 1 -32 15 -28 25 -37 51 -11 30 18 -15 17
-16 33 30 8 22 8 38 2 44 -6 6 -54 10 -108 11 -70 0 -104 4 -116 14 -24 20
-125 178 -148 231 -16 36 -21 42 -29 29 -10 -18 39 -134 85 -202 21 -30 23
-39 11 -43 -22 -9 -168 60 -255 120 -87 60 -241 240 -226 264 5 9 165 -44 209
-68 9 -6 39 -13 65 -16 26 -3 61 -10 77 -15 77 -22 289 -37 490 -34 184 2 218
5 275 24 36 12 74 28 86 36 11 7 39 18 61 24 22 6 57 22 77 36 21 14 60 37 87
51 27 13 66 40 87 58 55 49 144 107 156 103 6 -2 10 -22 9 -43z m54 -626 c-3
-8 -6 -5 -6 6 -1 11 2 17 5 13 3 -3 4 -12 1 -19z m-1052 2 c3 -5 -1 -10 -9
-10 -9 0 -16 5 -16 10 0 6 4 10 9 10 6 0 13 -4 16 -10z m2042 -96 c3 -8 1 -20
-6 -27 -6 -6 -11 -19 -11 -29 0 -10 -17 -29 -37 -43 -21 -13 -58 -38 -82 -55
-81 -58 -145 -89 -229 -110 -204 -53 -414 -45 -543 20 l-73 37 -71 -34 c-86
-40 -204 -67 -259 -57 -49 8 -33 19 44 29 30 4 61 11 70 16 8 4 31 10 50 13
57 9 95 40 121 95 26 55 45 64 59 27 5 -13 14 -27 21 -32 8 -5 10 -3 4 7 -5 8
1 5 14 -5 12 -11 20 -25 17 -32 -7 -17 28 -38 96 -58 86 -25 169 -30 240 -16
35 7 77 14 93 16 33 4 148 41 180 57 142 74 275 162 275 182 0 20 19 19 27 -1z"/>
<path d="M4810 3342 c-57 -48 -135 -92 -226 -126 -39 -15 -88 -35 -110 -46
-21 -11 -55 -20 -75 -20 -45 0 -89 -15 -89 -30 0 -11 32 -8 125 12 61 13 183
66 267 116 73 42 185 132 166 132 -7 0 -33 -17 -58 -38z"/>
<path d="M3975 6478 c11 -7 26 -18 33 -25 16 -16 72 -46 72 -39 0 8 -103 76
-115 76 -5 0 -1 -6 10 -12z"/>
<path d="M6830 6463 c0 -2 11 -8 23 -12 22 -9 24 -16 30 -113 5 -81 3 -126
-13 -212 -30 -166 -24 -179 21 -41 19 58 23 93 23 203 1 155 -1 153 96 90 117
-75 272 -249 317 -356 42 -99 101 -288 92 -298 -5 -6 -23 -9 -41 -6 l-33 4 44
-38 44 -38 -7 -94 c-4 -63 -3 -91 4 -87 6 3 10 -4 11 -17 1 -44 32 55 33 107
1 60 21 70 51 24 11 -16 29 -35 40 -41 18 -10 19 -10 5 7 -12 14 -16 53 -18
174 -3 175 -22 277 -71 385 -54 118 -153 246 -252 322 -67 51 -92 59 -35 11
25 -21 37 -39 35 -51 -4 -17 -7 -17 -35 7 -17 15 -34 24 -37 20 -9 -8 37 -50
62 -58 40 -12 151 -214 185 -335 21 -79 31 -164 17 -156 -6 4 -11 14 -11 22 0
8 -11 39 -23 67 -13 29 -32 70 -41 92 -36 84 -131 209 -212 278 -108 92 -172
128 -245 136 -32 4 -59 6 -59 4z m615 -348 c36 -74 48 -113 65 -215 24 -138
21 -260 -6 -260 -18 0 -22 24 -27 155 -3 93 -9 127 -41 223 -20 63 -48 136
-62 162 -14 27 -22 54 -18 61 10 17 38 -22 89 -126z"/>
<path d="M3365 6354 c-9 -100 0 -219 19 -266 7 -18 16 -42 20 -52 16 -45 16 0
1 78 -12 61 -16 121 -14 206 3 86 1 120 -8 120 -7 0 -14 -32 -18 -86z"/>
<path d="M3090 6410 c0 -5 7 -7 15 -4 8 4 15 8 15 10 0 2 -7 4 -15 4 -8 0 -15
-4 -15 -10z"/>
<path d="M4553 6368 c16 -43 21 -76 21 -171 1 -65 4 -108 8 -95 8 31 10 217 2
258 -4 19 -10 27 -14 20 -5 -8 -10 -2 -14 14 -3 14 -10 26 -15 26 -5 0 0 -24
12 -52z"/>
<path d="M4090 6406 c0 -2 8 -10 18 -17 15 -13 16 -12 3 4 -13 16 -21 21 -21
13z"/>
<path d="M5300 6391 c0 -5 5 -13 10 -16 6 -3 10 -2 10 4 0 5 -4 13 -10 16 -5
3 -10 2 -10 -4z"/>
<path d="M5696 6364 c-10 -27 -7 -312 4 -319 7 -4 10 33 9 107 -1 62 1 139 6
171 5 37 4 57 -3 57 -5 0 -13 -7 -16 -16z"/>
<path d="M4220 6282 c0 -12 19 -26 26 -19 2 2 -2 10 -11 17 -9 8 -15 8 -15 2z"/>
<path d="M4275 6225 c29 -54 130 -188 144 -193 15 -5 -33 69 -83 130 -17 21
-41 50 -54 65 l-23 28 16 -30z"/>
<path d="M5504 6060 c3 -18 19 -62 36 -96 33 -71 45 -111 41 -137 -1 -10 7
-33 17 -52 32 -54 30 -76 -11 -132 -20 -28 -37 -53 -37 -57 0 -8 -116 -160
-166 -215 -22 -25 -54 -66 -71 -91 -17 -25 -57 -70 -88 -100 -31 -30 -61 -64
-67 -74 -9 -16 -7 -18 10 -14 22 6 58 -23 45 -35 -3 -4 1 -7 9 -7 19 0 71 47
64 58 -3 5 19 33 47 64 65 70 131 148 136 162 10 27 54 75 64 69 6 -3 7 -1 3
5 -10 17 13 55 29 48 9 -3 17 4 20 17 26 88 48 96 73 27 13 -36 16 -89 17
-270 0 -124 -3 -263 -7 -310 -4 -51 -4 -77 2 -65 8 19 9 18 10 -5 1 -14 11 16
22 65 17 80 19 115 14 325 -3 129 -10 257 -16 284 -9 46 -8 50 22 89 34 42
151 124 209 146 19 7 54 22 79 33 31 13 64 19 100 17 73 -3 394 31 398 42 2 5
18 9 35 9 l32 1 -28 15 c-16 9 -71 20 -123 25 -77 8 -113 7 -187 -7 -51 -9
-101 -22 -112 -28 -11 -7 -33 -15 -50 -19 -27 -5 -179 -75 -245 -112 -14 -8
-46 -32 -72 -55 -44 -37 -88 -53 -88 -30 0 6 -6 10 -14 10 -17 0 -31 18 -21
28 3 3 10 0 15 -8 7 -11 10 -7 10 15 0 24 -2 27 -11 15 -8 -12 -9 -8 -8 15 1
17 -1 37 -4 45 -4 8 -13 41 -21 72 -17 68 -49 143 -65 152 -6 4 -9 11 -6 16 7
11 -20 66 -36 76 -9 5 -10 -2 -5 -26z m99 -489 c3 -13 -5 -26 -24 -40 -15 -12
-32 -21 -37 -21 -5 0 -7 -11 -5 -24 3 -15 -1 -25 -11 -29 -12 -5 -16 0 -16 18
0 13 5 27 10 30 6 3 10 13 10 21 0 18 40 64 56 64 6 0 14 -9 17 -19z m-337
-439 c-18 -18 -31 -10 -23 12 4 10 13 13 22 9 15 -5 15 -7 1 -21z"/>
<path d="M5856 6043 c-6 -14 -5 -15 5 -6 7 7 10 15 7 18 -3 3 -9 -2 -12 -12z"/>
<path d="M3805 5897 c-72 -15 -177 -67 -223 -110 -17 -17 -41 -55 -52 -84 -17
-45 -18 -63 -11 -117 10 -70 47 -144 93 -188 47 -45 47 -7 1 49 -52 63 -56 70
-64 123 -16 105 26 201 108 240 42 20 62 23 153 22 58 -1 148 -6 200 -13 52
-6 116 -8 141 -5 68 9 177 -38 356 -156 58 -38 83 -43 47 -9 -25 24 -170 114
-214 134 -19 8 -74 33 -122 55 -48 22 -111 45 -140 51 -90 17 -209 21 -273 8z
m310 -47 c8 -12 -42 -12 -70 0 -16 7 -11 9 22 9 23 1 45 -3 48 -9z"/>
<path d="M5723 5845 c-9 -24 1 -27 15 -5 8 13 8 20 2 20 -6 0 -13 -7 -17 -15z"/>
<path d="M6604 5842 c3 -5 1 -12 -5 -14 -6 -2 10 -14 35 -26 66 -33 96 -88 96
-174 0 -36 -6 -81 -14 -99 -27 -62 -96 -142 -149 -173 -47 -27 -63 -32 -117
-35 -13 -1 -13 -2 0 -11 17 -10 14 -15 -17 -24 -24 -8 -32 8 -10 18 19 9 -97
-4 -129 -14 -23 -8 -14 -9 39 -7 61 3 67 1 61 -16 -5 -16 -2 -18 33 -11 21 4
55 13 77 20 21 8 62 14 90 14 73 0 131 11 114 21 -8 6 -1 9 22 10 32 1 33 2
10 9 -14 4 -46 8 -71 9 -25 1 -48 4 -52 7 -3 4 13 25 36 48 23 22 55 67 71 99
23 47 28 69 28 127 -1 63 -4 75 -37 125 -33 49 -58 73 -104 100 -9 5 -12 4 -7
-3z"/>
<path d="M6938 5778 c-21 -6 -38 -14 -38 -20 0 -5 8 -7 18 -4 9 3 40 8 67 12
28 3 57 10 65 15 21 12 -65 10 -112 -3z"/>
<path d="M5670 5760 c-9 -6 -10 -10 -3 -10 6 0 15 5 18 10 8 12 4 12 -15 0z"/>
<path d="M4750 5532 c0 -7 71 -106 91 -127 7 -7 8 -3 3 10 -4 11 -12 25 -19
30 -6 6 -24 29 -38 53 -26 40 -37 51 -37 34z"/>
<path d="M2746 5445 c8 -71 23 -108 24 -55 0 19 -7 53 -15 75 l-15 40 6 -60z"/>
<path d="M7630 5490 c0 -6 -5 -8 -11 -5 -10 7 14 -46 74 -160 31 -60 31 -61
35 -241 4 -161 2 -189 -17 -260 -21 -75 -96 -232 -127 -264 -21 -21 -30 -3
-37 73 -4 34 -13 89 -22 122 -19 73 -93 227 -106 219 -5 -3 -9 4 -9 15 0 11
-4 23 -10 26 -5 3 -10 4 -10 2 0 -19 40 -128 71 -195 21 -46 39 -92 39 -103 0
-10 5 -39 12 -64 17 -63 3 -74 -48 -37 -99 71 -204 116 -218 93 -7 -10 107
-71 132 -71 24 0 108 -62 126 -92 9 -14 14 -32 11 -40 -8 -18 -118 -82 -190
-110 -51 -19 -110 -58 -87 -58 33 1 111 28 185 62 48 23 89 39 92 36 3 -3 -3
-48 -14 -101 -22 -111 -79 -245 -144 -340 -26 -38 -45 -73 -41 -78 3 -5 9 -7
14 -4 17 10 101 144 158 251 23 43 35 29 29 -33 -7 -71 -81 -220 -138 -278
-38 -39 -52 -64 -27 -49 8 5 9 0 6 -14 -9 -33 4 -27 43 21 62 74 95 130 123
207 57 156 69 235 56 374 l-10 107 45 59 c56 73 94 155 141 301 35 110 36 118
31 224 -6 113 -31 205 -88 317 -25 49 -69 105 -69 88z m-107 -1430 c-3 -12 -8
-19 -11 -16 -5 6 5 36 12 36 2 0 2 -9 -1 -20z"/>
<path d="M4706 5467 c3 -10 9 -15 12 -12 3 3 0 11 -7 18 -10 9 -11 8 -5 -6z"/>
<path d="M7507 5430 c-3 -8 -8 -32 -11 -53 -6 -46 11 -40 20 8 7 37 0 71 -9
45z"/>
<path d="M4760 5373 c49 -69 110 -136 118 -129 3 3 -13 25 -35 49 -22 24 -52
64 -67 90 -16 26 -34 47 -43 47 -9 0 0 -19 27 -57z"/>
<path d="M7430 5405 c0 -5 -5 -29 -9 -52 -5 -23 -5 -40 0 -37 11 6 22 69 16
86 -3 7 -6 9 -7 3z"/>
<path d="M3668 5373 c-10 -2 -18 -11 -18 -18 0 -13 -29 -28 -46 -23 -5 1 -40
-2 -79 -6 -125 -14 -259 -83 -309 -160 -35 -55 -22 -64 23 -16 21 22 45 40 53
40 8 0 23 9 34 21 10 11 43 33 74 47 49 24 69 27 178 30 103 3 134 0 192 -17
85 -26 122 -28 113 -4 -6 14 1 16 65 10 56 -4 72 -3 72 7 0 9 -21 15 -62 19
-35 3 -103 19 -153 35 -49 17 -97 32 -105 35 -8 3 -23 3 -32 0z m62 -38 c0 -8
-6 -15 -14 -15 -7 0 -19 7 -26 15 -11 13 -8 15 14 15 16 0 26 -5 26 -15z"/>
<path d="M4881 5348 c13 -24 38 -47 52 -48 13 0 -21 57 -38 64 -25 9 -27 8
-14 -16z"/>
<path d="M4940 5280 c0 -5 5 -10 11 -10 5 0 7 5 4 10 -3 6 -8 10 -11 10 -2 0
-4 -4 -4 -10z"/>
<path d="M6887 5273 c-14 -4 -3 -15 45 -45 81 -52 134 -103 160 -152 18 -35
19 -46 9 -94 -6 -31 -9 -57 -7 -59 2 -2 16 6 31 19 l27 24 -20 60 c-11 33 -29
79 -40 101 -25 48 -79 96 -99 89 -8 -3 -12 -2 -9 3 7 11 -20 35 -31 28 -13 -8
-55 12 -48 23 3 5 5 9 3 9 -2 -1 -11 -3 -21 -6z"/>
<path d="M4990 5233 c0 -15 49 -72 50 -57 0 6 -11 24 -25 40 -14 16 -25 24
-25 17z"/>
<path d="M4890 5221 c0 -5 5 -13 10 -16 6 -3 10 -2 10 4 0 5 -4 13 -10 16 -5
3 -10 2 -10 -4z"/>
<path d="M4930 5166 c0 -2 7 -9 15 -16 13 -11 14 -10 9 4 -5 14 -24 23 -24 12z"/>
<path d="M5070 5126 c0 -9 5 -16 10 -16 6 0 10 4 10 9 0 6 -4 13 -10 16 -5 3
-10 -1 -10 -9z"/>
<path d="M3157 5057 c-24 -19 -28 -28 -25 -61 2 -26 10 -43 25 -53 22 -15 22
-14 16 40 -3 32 -1 62 6 75 15 27 13 27 -22 -1z"/>
<path d="M5070 5023 c-116 -92 -215 -165 -259 -190 -107 -60 -150 -87 -146
-91 2 -3 0 -12 -5 -22 -12 -22 6 -90 25 -90 7 0 15 -5 17 -11 3 -8 14 -6 36 5
18 9 32 19 32 22 0 3 -4 2 -10 -1 -5 -3 -10 -2 -10 4 0 5 9 12 20 16 11 3 29
18 40 32 17 22 31 27 78 30 l57 4 -25 -20 c-14 -11 -29 -21 -34 -21 -5 0 -7
-2 -4 -5 4 -5 58 17 84 33 103 67 144 98 144 109 0 10 -10 8 -40 -7 -21 -11
-48 -20 -58 -20 -11 0 -25 -7 -32 -15 -15 -19 -80 -20 -104 -2 -15 11 -16 18
-8 33 15 27 81 87 125 113 32 19 38 20 43 7 5 -12 9 -13 24 -3 14 8 16 13 7
19 -8 5 -9 11 -2 16 6 4 18 19 28 35 23 35 66 37 98 2 25 -25 50 -35 30 -12
-6 8 -7 18 -3 22 4 5 1 5 -5 1 -8 -4 -23 3 -37 17 -38 38 -47 37 -106 -10z"/>
<path d="M3195 4830 c-3 -5 -1 -10 4 -10 6 0 11 5 11 10 0 6 -2 10 -4 10 -3 0
-8 -4 -11 -10z"/>
<path d="M5170 4831 c0 -30 169 -131 314 -187 54 -22 101 -45 104 -52 16 -42
-149 -365 -241 -471 -22 -25 -55 -68 -72 -96 -32 -49 -123 -135 -144 -135 -6
0 12 -20 38 -45 54 -51 61 -54 54 -24 -4 15 5 32 34 62 48 49 120 150 188 262
54 90 165 330 165 358 0 34 19 55 57 62 l37 7 -42 18 c-24 11 -42 26 -42 35 0
9 -4 14 -9 10 -13 -8 -161 41 -192 64 -14 10 -57 35 -95 54 -38 20 -88 48
-111 62 -24 14 -43 22 -43 16z m182 -783 c-7 -7 -12 -8 -12 -2 0 14 12 26 19
19 2 -3 -1 -11 -7 -17z m-52 -66 c0 -5 -13 -21 -30 -37 -34 -33 -40 -21 -9 19
20 25 39 34 39 18z"/>
<path d="M7140 4826 c-13 -17 -7 -46 9 -46 14 0 25 40 14 51 -6 6 -15 4 -23
-5z"/>
<path d="M6892 4719 c-35 -17 -62 -32 -60 -34 7 -7 93 26 118 45 35 27 15 23
-58 -11z"/>
<path d="M7122 4738 c3 -7 23 -16 46 -19 22 -3 39 -2 36 3 -3 4 3 8 13 9 29 2
-27 17 -65 18 -23 1 -32 -3 -30 -11z"/>
<path d="M3399 4691 c44 -29 127 -58 137 -48 9 8 -38 36 -97 57 -76 28 -91 25
-40 -9z"/>
<path d="M4550 4710 c-12 -8 -10 -10 10 -11 14 0 19 -3 12 -6 -9 -3 -6 -13 9
-35 12 -17 18 -33 13 -38 -23 -23 -322 -78 -345 -64 -6 3 -44 6 -85 6 -41 -1
-76 3 -80 9 -6 11 -158 3 -178 -9 -42 -25 355 -44 479 -22 39 6 95 15 125 20
30 4 73 10 96 14 36 6 42 5 52 -16 l11 -23 0 27 c1 15 -3 29 -8 33 -6 3 -13
26 -17 51 -3 25 -13 52 -21 59 -17 17 -51 19 -73 5z"/>
<path d="M5659 4683 c-7 -38 -3 -66 11 -73 14 -7 107 -27 234 -50 33 -5 82
-10 110 -10 28 0 58 -5 66 -11 16 -11 -186 -6 -250 7 -19 3 -32 4 -29 0 18
-19 327 -50 364 -36 11 4 70 10 130 14 61 3 135 13 165 21 30 8 67 15 82 15
44 0 277 94 265 107 -2 1 -30 -8 -63 -21 -172 -69 -263 -81 -522 -66 -108 6
-217 17 -242 25 -93 29 -153 45 -165 45 -7 0 -32 9 -56 20 -44 20 -98 26 -100
13z"/>
<path d="M4825 4665 c-16 -7 -23 -14 -15 -14 8 0 26 6 40 14 32 18 14 18 -25
0z"/>
<path d="M4397 4664 c-9 -10 2 -24 19 -24 8 0 14 7 14 15 0 15 -21 21 -33 9z"/>
<path d="M6000 4640 c34 -11 60 -11 35 0 -11 5 -29 8 -40 8 -16 0 -15 -2 5 -8z"/>
<path d="M3609 4609 c16 -6 28 -6 35 1 7 7 -1 10 -24 9 -33 0 -34 -1 -11 -10z"/>
<path d="M3680 4603 c0 -26 151 -66 164 -44 4 6 5 11 2 11 -5 0 -119 28 -148
36 -10 3 -18 1 -18 -3z"/>
<path d="M4158 4583 c7 -3 16 -2 19 1 4 3 -2 6 -13 5 -11 0 -14 -3 -6 -6z"/>
<path d="M5768 4553 c7 -3 16 -2 19 1 4 3 -2 6 -13 5 -11 0 -14 -3 -6 -6z"/>
<path d="M4721 4494 c-1 -27 100 -234 123 -254 17 -13 17 -12 3 20 -8 19 -33
64 -56 99 -22 35 -41 71 -41 80 -1 9 -7 30 -15 46 -11 25 -14 26 -14 9z"/>
<path d="M3687 4423 c-2 -5 -10 -39 -17 -76 -11 -59 -10 -81 5 -160 38 -208
54 -254 111 -321 47 -55 107 -92 180 -112 95 -25 182 -9 326 61 156 76 165 49
27 -79 -102 -94 -318 -186 -439 -186 -27 0 -39 -4 -34 -11 16 -26 224 16 326
66 119 59 267 187 254 221 -4 9 3 18 18 24 26 10 34 27 34 76 1 18 15 57 33
88 36 65 33 87 -4 29 -57 -87 -222 -214 -319 -244 -41 -13 -90 -19 -157 -19
l-97 0 -61 45 c-52 38 -67 58 -104 131 -42 83 -44 90 -44 178 0 50 4 118 8
151 6 47 5 57 -5 47 -24 -24 -30 -12 -23 43 4 35 3 55 -4 55 -5 0 -12 -3 -14
-7z"/>
<path d="M6570 4401 c0 -11 5 -23 10 -26 6 -3 10 3 10 14 0 11 -4 23 -10 26
-5 3 -10 -3 -10 -14z"/>
<path d="M6530 4343 c1 -5 7 -35 15 -68 8 -33 15 -87 15 -121 0 -88 -45 -218
-91 -261 -13 -12 -37 -36 -54 -53 -44 -44 -113 -64 -214 -62 -73 1 -94 6 -156
35 -39 19 -77 40 -85 48 -8 8 -38 31 -66 52 -57 41 -111 103 -149 169 -36 62
-31 22 6 -45 54 -101 242 -248 351 -275 61 -16 193 -15 238 2 62 22 143 90
179 151 42 69 81 210 80 285 0 37 -3 49 -8 35 -7 -16 -11 -9 -25 37 -9 31 -16
61 -16 67 0 6 -4 11 -10 11 -5 0 -10 -3 -10 -7z"/>
<path d="M4802 4245 c6 -16 20 -39 31 -50 19 -20 19 -20 4 10 -9 17 -23 39
-31 50 -15 19 -16 18 -4 -10z"/>
<path d="M3331 4169 c-40 -71 -71 -281 -53 -355 6 -22 13 -52 16 -67 4 -16 11
-25 17 -21 8 4 9 36 4 98 -7 96 10 232 40 316 28 79 13 96 -24 29z"/>
<path d="M6890 4195 c0 -3 7 -17 17 -31 29 -44 53 -189 53 -324 1 -135 12
-144 28 -25 18 128 -5 265 -58 353 -17 28 -40 43 -40 27z"/>
<path d="M7275 3891 c-6 -11 9 -23 19 -14 9 9 7 23 -3 23 -6 0 -12 -4 -16 -9z"/>
<path d="M5820 3865 c0 -16 84 -125 109 -141 14 -10 55 -41 91 -70 109 -88
223 -125 373 -123 l92 2 -65 9 c-36 5 -82 16 -103 24 -20 8 -46 14 -57 14 -37
0 -234 95 -297 143 -34 26 -80 70 -102 98 -23 29 -41 48 -41 44z"/>
<path d="M6557 3810 c-4 -19 -15 -84 -23 -145 -9 -60 -21 -117 -29 -125 -7 -8
-10 -21 -8 -28 3 -6 -6 -17 -19 -22 -19 -8 -15 -9 17 -4 22 3 41 7 42 7 1 1 9
45 18 98 16 97 18 292 2 219z"/>
<path d="M5425 3660 c3 -5 16 -15 28 -21 22 -12 22 -12 3 10 -19 21 -43 30
-31 11z"/>
<path d="M5200 3619 c0 -12 -4 -17 -11 -13 -15 9 -2 -32 24 -75 18 -30 21 -32
28 -15 6 16 9 13 23 -18 9 -21 21 -38 27 -38 6 0 9 -14 7 -32 -2 -20 2 -33 11
-36 9 -3 11 0 7 9 -4 8 0 5 8 -5 9 -11 16 -24 16 -29 0 -14 69 -88 112 -120
21 -16 38 -26 38 -23 0 3 21 -15 48 -39 63 -60 121 -89 217 -109 44 -10 100
-24 125 -33 52 -17 162 -23 157 -8 -4 12 -42 23 -85 24 -35 1 -106 33 -118 52
-5 9 11 10 63 5 59 -6 71 -4 76 9 4 8 5 15 4 16 -1 0 -22 2 -47 5 -84 10 -242
60 -310 97 -99 55 -130 75 -188 123 -69 59 -110 106 -177 207 -25 37 -47 67
-50 67 -3 0 -5 -9 -5 -21z"/>
<path d="M5575 3579 c43 -21 86 -39 95 -38 8 0 4 5 -10 11 -14 6 -52 24 -84
40 -33 15 -64 28 -70 27 -6 0 25 -18 69 -40z"/>
<path d="M5467 3595 c7 -19 46 -40 90 -49 17 -4 37 -14 44 -22 6 -8 28 -14 48
-14 34 1 31 3 -34 29 -38 15 -86 37 -105 49 -41 26 -51 27 -43 7z"/>
<path d="M7045 3580 c-27 -17 -54 -31 -60 -34 -5 -2 -7 -6 -4 -9 3 -4 39 11
80 33 41 22 65 39 54 39 -11 0 -42 -13 -70 -29z"/>
<path d="M6711 3554 c-19 -8 -32 -16 -29 -19 5 -6 108 23 108 30 0 10 -46 4
-79 -11z"/>
<path d="M6867 3564 c-3 -3 -3 -12 0 -20 11 -30 -133 -206 -216 -263 -20 -13
-70 -41 -111 -62 -57 -29 -71 -39 -57 -45 10 -4 35 2 60 14 23 11 59 27 80 36
20 9 37 20 37 26 0 5 28 23 63 40 72 34 100 57 123 103 9 18 22 39 29 47 13
17 45 99 45 118 0 12 -42 17 -53 6z"/>
<path d="M5830 3500 c8 -5 22 -10 30 -10 13 0 13 1 0 10 -8 5 -22 10 -30 10
-13 0 -13 -1 0 -10z"/>
<path d="M6690 3499 c-19 -4 -62 -14 -95 -22 -33 -8 -88 -21 -123 -28 -48 -10
-58 -15 -42 -21 32 -12 33 -30 7 -90 -17 -38 -21 -55 -12 -55 8 0 11 7 7 15
-3 10 -1 13 6 8 7 -4 18 6 27 24 9 18 11 30 5 30 -6 0 4 15 22 34 32 33 87 58
185 85 23 6 45 16 48 21 3 6 5 9 3 9 -2 -1 -19 -5 -38 -10z"/>
<path d="M5712 3490 c4 -13 109 -58 153 -65 111 -17 466 -21 493 -5 12 6 -45
9 -173 10 -177 0 -199 2 -315 30 -69 17 -133 33 -144 36 -11 4 -17 2 -14 -6z"/>
<path d="M5915 3480 c11 -5 40 -8 65 -8 l45 0 -40 9 c-22 4 -51 8 -65 8 -23 0
-23 -1 -5 -9z"/>
<path d="M6052 3468 c-9 -4 46 -6 123 -6 141 1 132 5 -23 10 -46 2 -91 0 -100
-4z"/>
<path d="M6759 3242 c-84 -84 -203 -155 -324 -193 -60 -18 -86 -39 -50 -39 33
0 159 41 179 57 12 10 41 28 66 41 69 34 250 214 213 211 -4 0 -42 -35 -84
-77z"/>
</g>
</svg>
